<svg version="1.1" id="Layer_1" xmlns="http://www.w3.org/2000/svg" xmlns:xlink="http://www.w3.org/1999/xlink" x="0px" y="0px"
	 width="100%" viewBox="0 0 1254 1254" enable-background="new 0 0 1254 1254" xml:space="preserve">
<path fill="#010100" opacity="1.000000" stroke="none" 
	d="
M726.000000,1255.000000 
	C485.500000,1255.000000 245.500000,1254.989868 5.500041,1255.093506 
	C1.750814,1255.095093 0.906156,1254.249023 0.907049,1250.500000 
	C1.005925,835.500000 1.005925,420.500000 0.907049,5.500022 
	C0.906156,1.750941 1.750940,0.906157 5.500022,0.907050 
	C420.500000,1.005918 835.500000,1.005918 1250.500000,0.907050 
	C1254.249023,0.906157 1255.093994,1.750940 1255.093018,5.500021 
	C1254.994141,420.500000 1254.994141,835.500000 1255.093018,1250.500000 
	C1255.093872,1254.249023 1254.249268,1255.096191 1250.500000,1255.093872 
	C1075.833374,1254.986084 901.166687,1255.000000 726.000000,1255.000000 
z"/>
<path fill="#DCAA26" opacity="1.000000" stroke="none" 
	d="
M922.119507,349.945251 
	C915.131165,353.590027 907.764282,357.014801 900.335327,360.299316 
	C798.500061,405.323242 702.804565,460.957428 613.015503,526.756165 
	C597.431824,538.176147 582.212036,550.097595 566.972229,561.977295 
	C564.553040,563.863098 563.057251,563.902954 560.566772,562.245850 
	C524.758179,538.420898 489.924683,513.273560 456.364838,486.355469 
	C452.934143,483.603760 453.749329,482.224365 456.221649,479.680298 
	C499.133636,435.522491 544.713806,394.321167 592.887695,355.978882 
	C667.330566,296.728699 745.636230,243.245407 829.273193,197.738068 
	C858.974609,181.577332 889.188171,166.440277 920.635620,153.039612 
	C922.393127,154.734741 921.982483,156.808304 921.983154,158.769791 
	C922.004150,219.918976 921.988525,281.068176 922.042725,342.217316 
	C922.044922,344.715515 921.267090,347.158325 922.119507,349.945251 
z"/>
<path fill="#DBAA26" opacity="1.000000" stroke="none" 
	d="
M821.205750,595.856506 
	C822.813110,595.549255 824.167542,593.902649 825.220337,596.210938 
	C825.423584,596.656677 825.806946,597.017212 826.081787,597.433838 
	C829.377380,602.430115 834.654480,607.149231 835.410583,612.505737 
	C836.191467,618.037903 830.082581,622.731750 826.879578,627.704041 
	C794.592834,677.825562 755.855835,722.645935 713.298950,764.177551 
	C636.380676,839.242920 551.555664,903.998413 458.291962,957.523499 
	C419.118988,980.005310 378.535309,999.691345 336.440002,1017.040527 
	C334.537384,1015.583130 335.024506,1013.645691 335.023682,1011.874207 
	C334.994476,949.952698 334.997406,888.031189 335.008759,826.109680 
	C335.009033,824.619751 334.862823,823.105652 335.686523,821.233154 
	C350.752014,815.835144 365.593903,810.938904 380.385925,805.896301 
	C454.415619,780.659180 526.908508,751.811401 595.603333,714.069275 
	C665.090393,675.892029 728.008179,628.914062 784.340271,573.121277 
	C787.890686,569.604858 791.454285,566.095703 794.858215,562.440247 
	C796.508362,560.668091 797.601501,560.610352 799.146179,562.548584 
	C803.918396,568.537048 808.820496,574.422058 813.818604,580.644104 
	C813.558777,582.916382 812.871094,584.673950 811.397339,586.212219 
	C794.469543,603.880554 777.994995,622.005310 759.907043,638.517334 
	C739.379883,657.255981 717.870117,674.809204 695.646240,691.522766 
	C659.646606,718.596558 621.692261,742.625916 582.291748,764.335022 
	C554.286011,779.765747 525.460938,793.625000 496.209167,806.583679 
	C461.638306,821.898743 426.534241,835.860840 390.966827,848.671204 
	C386.737640,850.194458 382.524475,851.796631 378.252319,853.157593 
	C374.234039,854.437683 372.771057,857.133728 372.424652,860.908752 
	C372.256989,862.736145 372.288666,864.571106 372.288269,866.403687 
	C372.282043,894.229126 372.285370,922.054504 372.285645,949.879944 
	C372.285675,950.713013 372.265747,951.547058 372.303741,952.378967 
	C372.511963,956.936096 373.375610,957.601013 377.358887,955.632080 
	C391.098480,948.840393 404.931976,942.222351 418.460907,935.024353 
	C440.651794,923.217834 462.384613,910.591614 483.804932,897.437378 
	C513.609619,879.134216 542.701477,859.757812 571.041809,839.256592 
	C589.786865,825.696533 608.202026,811.698608 626.284729,797.271484 
	C643.056213,783.890503 659.531860,770.161804 675.545166,755.859375 
	C690.811951,742.223511 705.980713,728.507019 720.320435,713.892456 
	C721.604370,712.583984 722.882080,711.272461 724.326721,709.623596 
	C725.663208,708.478455 727.152710,708.053284 727.940308,706.328491 
	C732.020447,702.231873 735.895386,698.413330 739.822021,694.175293 
	C741.985962,691.857788 744.675537,690.467896 745.931274,687.328857 
	C756.002441,677.641907 764.679260,667.125000 773.703918,656.937866 
	C780.258484,649.538818 786.187683,641.601501 792.477661,633.971069 
	C793.222107,633.067932 793.972412,632.184326 794.441528,630.725464 
	C794.584717,630.175903 794.645630,629.958374 794.857483,629.440186 
	C795.733826,628.321655 796.629028,627.675232 797.532654,626.587402 
	C798.532166,625.643677 799.233215,624.877441 799.671387,623.538452 
	C800.258606,622.524475 800.730774,621.809570 801.347900,620.795410 
	C802.203308,618.563416 802.619202,616.468323 804.734253,614.945801 
	C810.325989,613.117065 811.692749,607.720032 814.972351,604.168518 
	C816.934448,602.043823 818.533752,599.427185 820.023499,596.445679 
	C820.448486,596.051270 820.651733,595.931763 821.205750,595.856506 
z"/>
<path fill="#DCAB26" opacity="1.000000" stroke="none" 
	d="
M920.366089,1012.198303 
	C897.961365,1002.367371 876.442810,991.084290 855.178467,979.327881 
	C810.913757,954.855469 768.799011,927.108154 729.057190,895.798523 
	C704.955444,876.810547 681.948242,856.559998 659.646301,835.494263 
	C657.171875,833.156982 656.253540,831.778625 659.567322,829.107544 
	C667.344727,822.838623 674.805786,816.166016 682.216309,809.459595 
	C684.514526,807.379700 685.921448,807.219238 688.307556,809.432983 
	C720.747986,839.531555 755.902161,866.198669 792.394409,891.134094 
	C820.615173,910.417603 849.781433,928.149780 880.237000,943.713013 
	C880.814697,944.008179 881.430481,944.228821 881.982666,944.464722 
	C883.478394,943.638672 882.839355,942.323303 882.840881,941.289856 
	C882.893494,905.792175 882.882874,870.294373 882.960266,834.796753 
	C882.966003,832.178345 882.795715,830.462463 879.517578,830.089966 
	C830.646057,824.535767 786.967041,805.257385 745.850220,779.276184 
	C740.923401,776.163086 736.088501,772.904480 731.160950,769.792542 
	C729.283936,768.607178 729.141418,767.717590 730.802917,766.044861 
	C738.435425,758.360474 746.042236,750.643494 753.413391,742.710632 
	C755.715393,740.233276 757.370789,741.326294 759.385986,742.594482 
	C771.100525,749.966675 783.110535,756.833862 795.588501,762.814880 
	C814.532776,771.895203 833.771729,780.284668 854.559998,784.287109 
	C872.215576,787.686401 881.535706,781.481934 884.109131,763.760437 
	C887.190552,742.541748 886.351135,721.211914 883.587463,700.009460 
	C877.937988,656.667725 859.411255,618.677551 834.228882,583.211670 
	C830.272522,581.356140 827.383606,579.063232 827.254395,574.234985 
	C813.117004,554.257996 796.955261,536.334900 780.297913,518.842651 
	C764.207031,501.945160 747.297974,485.894745 729.814026,470.446136 
	C728.577820,469.353760 727.469849,468.116241 725.746094,466.388885 
	C733.707886,461.754761 741.365234,457.258148 749.061035,452.828308 
	C759.440979,446.853394 759.507019,446.818695 768.060913,454.850281 
	C801.981445,486.699677 834.430969,519.908264 862.188354,557.411682 
	C890.383789,595.507141 911.200073,636.933350 919.103577,684.556824 
	C918.161438,688.972900 920.484131,692.568115 920.708618,696.727234 
	C920.981506,697.165588 921.040710,697.328125 921.050110,697.745239 
	C921.403076,701.490784 919.391174,705.101990 921.750732,708.753784 
	C922.045654,709.440002 922.113586,709.879028 922.118469,710.647766 
	C920.794983,804.259705 921.827698,897.546448 921.552979,990.830750 
	C921.542053,994.526245 921.336792,997.835022 917.386536,999.600281 
	C922.001648,1002.942688 922.545837,1005.114563 920.366089,1012.198303 
z"/>
<path fill="#DCAA26" opacity="1.000000" stroke="none" 
	d="
M347.551758,157.846695 
	C373.415710,167.525757 398.261841,178.422470 422.825684,189.944687 
	C466.313202,210.343460 508.092712,233.777832 547.652283,261.084442 
	C572.373108,278.148346 595.482788,297.239471 618.129578,316.930023 
	C621.394836,319.769073 620.365906,321.029266 617.614136,323.110321 
	C608.578430,329.943726 599.595703,336.855103 590.795532,343.987000 
	C588.160461,346.122559 586.673828,345.951416 584.244080,343.669434 
	C556.127197,317.263184 525.988953,293.399536 493.804413,272.117950 
	C459.291077,249.296448 423.058167,229.596375 385.540131,212.215271 
	C382.999847,211.038437 380.355286,210.086685 377.213593,208.808197 
	C377.105530,210.925232 376.941193,212.653168 376.940155,214.381195 
	C376.911530,261.543152 376.996704,308.705414 376.835724,355.866882 
	C376.773804,374.014160 376.224365,392.136719 377.700348,410.279236 
	C381.528290,457.330994 399.516022,498.047333 431.566772,532.610229 
	C457.090027,560.134033 486.869019,582.655518 516.918518,604.818787 
	C551.512024,630.333618 587.249329,654.198303 623.195740,677.750427 
	C624.149658,678.375427 625.076843,679.041260 626.415527,679.962769 
	C621.178772,684.346191 615.306030,687.037537 609.818237,690.277222 
	C602.363770,694.677856 594.587341,698.539490 587.197815,703.040771 
	C584.079407,704.940247 581.919434,704.411865 579.197632,702.577881 
	C558.752747,688.801208 538.088806,675.344971 517.784851,661.365173 
	C487.596466,640.579773 458.066803,618.915100 429.685516,595.662048 
	C381.141174,555.889343 349.929810,505.957825 338.937805,443.431030 
	C338.271210,435.901703 337.525299,428.796204 336.208679,421.768097 
	C335.515747,418.069122 337.710327,414.201050 335.277710,410.299408 
	C334.980865,409.833405 334.920532,409.672272 334.920898,409.260254 
	C335.651886,403.707275 335.499420,398.378357 335.499817,393.054504 
	C335.505371,319.084076 335.479584,245.113663 335.535828,171.143250 
	C335.538757,167.307922 335.072876,163.506668 335.041534,159.687515 
	C335.005890,155.341705 336.393921,154.300171 340.525757,155.365585 
	C342.783539,155.947739 344.903656,156.943787 347.551758,157.846695 
z"/>
<path fill="#DCAB27" opacity="1.000000" stroke="none" 
	d="
M805.883850,615.965271 
	C804.426453,617.626404 804.015015,619.495728 803.617432,621.708618 
	C801.374268,620.640991 801.105896,622.796265 800.071960,624.071472 
	C799.439880,625.303650 798.390869,625.827820 797.911621,627.164062 
	C797.289124,628.125916 796.714844,628.746643 796.174011,629.769836 
	C795.974304,630.012695 796.006470,630.005554 796.008789,629.989258 
	C788.535889,638.564209 781.601440,647.603149 774.215271,656.272705 
	C770.562317,660.560364 766.875488,664.843201 763.069336,668.964905 
	C757.677917,674.803406 752.805359,681.147522 746.501587,686.602295 
	C744.129822,689.169189 742.284363,691.766296 739.490479,693.917603 
	C735.787598,698.382507 731.760254,702.027771 727.316589,705.734497 
	C726.560852,706.794434 725.986938,707.550293 724.876282,708.294678 
	C717.154236,717.505310 708.509949,725.269531 699.716003,732.855164 
	C688.136414,742.843750 676.802917,753.107056 665.052124,762.911255 
	C652.275879,773.571106 639.354309,784.040283 626.252380,794.281189 
	C592.136414,820.947449 556.850281,845.989746 520.467102,869.467163 
	C492.073761,887.788879 463.280121,905.440979 433.510742,921.486938 
	C418.996490,929.310059 404.423950,936.999695 389.647522,944.308716 
	C388.005585,945.120850 386.401123,946.062866 384.617950,946.501770 
	C380.945068,947.405762 378.462311,945.671326 377.914124,941.882202 
	C377.675323,940.231689 377.723877,938.557312 377.722992,936.891602 
	C377.711151,914.235291 377.692657,891.578918 377.730927,868.922668 
	C377.745941,860.022827 377.996399,859.630188 386.221710,856.584412 
	C421.510223,843.517151 456.515961,829.708557 490.643555,813.862793 
	C528.244507,796.404358 565.279907,777.801270 600.960510,756.576599 
	C634.051270,736.892822 665.982056,715.512146 696.489136,692.056824 
	C716.666565,676.543396 736.166199,660.203735 754.858215,642.864685 
	C768.898865,629.840271 782.685425,616.596069 795.769531,602.632446 
	C800.996704,597.053955 806.138184,591.382996 811.283813,585.722351 
	C812.842529,584.007690 814.423950,581.691040 817.073303,582.911133 
	C819.680237,584.111755 821.719788,586.178284 821.313965,589.914795 
	C822.718201,592.039795 821.461365,593.545715 821.198669,595.505310 
	C821.556580,595.900818 821.526306,595.898499 821.512695,595.938843 
	C815.911926,602.250000 811.564209,609.467957 805.883850,615.965271 
z"/>
<path fill="#DCAB26" opacity="1.000000" stroke="none" 
	d="
M376.256531,773.890869 
	C377.342926,779.663879 375.220184,782.265747 369.973724,783.977600 
	C359.076355,787.533447 348.424622,791.851929 337.719818,795.981201 
	C335.049103,797.011475 333.844940,796.954895 333.920227,793.558716 
	C334.591125,763.292114 332.448212,732.945190 336.021118,702.765076 
	C341.437927,657.009888 356.928436,614.960266 382.960449,576.832581 
	C385.419373,573.231079 386.680481,573.005188 389.631775,576.366760 
	C396.884186,584.627258 404.705627,592.405151 413.376495,599.174377 
	C417.146484,602.117554 417.022827,604.157898 414.487335,607.909119 
	C392.801300,639.994019 380.626404,675.496704 377.186218,714.014343 
	C375.420624,733.783020 376.546295,753.610229 376.256531,773.890869 
z"/>
<path fill="#0C0902" opacity="1.000000" stroke="none" 
	d="
M821.601807,590.058960 
	C815.317261,582.704285 815.328003,582.713623 808.820190,590.181213 
	C769.554138,635.237976 725.140991,674.590576 676.744385,709.556213 
	C602.606079,763.119873 522.057739,804.806030 437.476440,839.077148 
	C420.044678,846.140198 402.568390,853.080933 384.802307,859.244080 
	C380.848572,860.615662 380.022919,862.801392 380.044556,866.578247 
	C380.186829,891.406250 380.210083,916.235718 380.068665,941.063599 
	C380.043793,945.434265 380.787689,946.133850 384.928406,944.134155 
	C437.990448,918.509521 488.420807,888.370117 537.378662,855.684082 
	C590.094238,820.489319 640.421753,782.164368 687.993835,740.270203 
	C700.085449,729.621704 711.638184,718.361267 723.733826,707.232849 
	C725.597900,707.185547 726.401367,708.103516 726.737732,709.970337 
	C714.553650,723.817444 701.040527,735.963440 687.566772,748.111389 
	C621.181213,807.964355 549.489990,860.673279 472.900421,906.726929 
	C440.046234,926.482361 406.337036,944.644470 371.481445,960.661072 
	C370.049072,959.462219 370.599884,957.855103 370.599640,956.451599 
	C370.594513,923.792236 370.693848,891.132690 370.579132,858.473877 
	C370.565887,854.705688 371.716736,853.060547 375.335907,851.788391 
	C428.436890,833.122864 480.639343,812.258911 531.380493,787.811768 
	C611.820312,749.055847 686.382751,701.397217 753.080200,641.801697 
	C774.341248,622.804565 794.422913,602.608582 813.744873,581.190613 
	C815.130493,582.161499 815.810669,580.098145 816.363892,580.398804 
	C823.193237,584.110596 825.101379,579.530151 827.005493,574.134399 
	C829.456055,576.704834 831.626465,579.530945 833.874512,582.687378 
	C833.629700,583.080078 833.286316,583.248047 832.987854,583.189087 
	C827.286438,582.063293 823.885132,584.742554 821.601807,590.058960 
z"/>
<path fill="#DBAA26" opacity="1.000000" stroke="none" 
	d="
M901.476685,505.518860 
	C894.448364,523.056702 886.096191,539.502930 876.459045,555.964294 
	C871.673401,549.739075 867.179626,543.826111 862.610474,537.971924 
	C859.126526,533.507996 855.690857,528.992310 851.956360,524.743408 
	C849.717163,522.195801 849.260559,520.227905 851.028748,516.996582 
	C866.101807,489.450165 876.302612,460.217163 880.557800,429.028534 
	C882.177612,417.155731 883.401001,405.229370 883.246277,393.228790 
	C883.205750,390.081146 884.267700,388.537170 887.171387,387.334473 
	C897.932983,382.877106 908.622864,378.237732 919.239319,373.444336 
	C922.482849,371.979858 923.047791,372.696533 923.114136,376.039185 
	C923.994202,420.429443 918.486694,463.736237 901.476685,505.518860 
z"/>
<path fill="#D4A525" opacity="1.000000" stroke="none" 
	d="
M920.298340,1012.734375 
	C920.030396,1011.368774 919.948364,1010.198792 920.013672,1009.037109 
	C920.250061,1004.832947 920.344360,1000.953491 914.268311,1004.291748 
	C913.042542,1004.965332 911.567627,1004.595337 910.734192,1003.296143 
	C909.799500,1001.839111 910.827942,1000.762634 911.760925,999.812744 
	C912.570679,998.988220 913.444885,997.781921 914.421204,997.639343 
	C920.183655,996.797791 920.048340,992.798950 920.045166,988.377991 
	C919.981934,901.241211 920.010376,814.104431 919.971802,726.967590 
	C919.969543,721.781372 920.798523,716.726562 921.840210,711.314392 
	C922.373718,715.612793 922.966614,720.247925 922.969666,724.883484 
	C923.032532,819.474854 923.039368,914.066162 922.925049,1008.657410 
	C922.923340,1010.044250 925.081360,1013.659363 920.298340,1012.734375 
z"/>
<path fill="#CFA222" opacity="1.000000" stroke="none" 
	d="
M347.782959,157.654724 
	C345.317078,159.365692 343.352386,156.962311 341.042877,156.427872 
	C337.149689,155.527008 335.380737,156.960037 336.119141,160.696381 
	C337.688141,168.635254 336.939575,176.621765 336.948242,184.577377 
	C337.025757,255.944901 336.995392,327.312531 336.997009,398.680145 
	C336.997070,402.002045 337.254272,405.364960 335.207703,408.701538 
	C334.644775,403.703735 334.018585,398.398315 334.014587,393.092407 
	C333.955597,314.858643 333.976013,236.624832 333.990082,158.391037 
	C333.991180,152.254395 334.043335,152.230453 339.645203,154.306046 
	C342.294128,155.287521 344.901642,156.380798 347.782959,157.654724 
z"/>
<path fill="#EFBB27" opacity="1.000000" stroke="none" 
	d="
M335.684906,820.785278 
	C335.970642,885.909058 336.008209,951.019226 336.057404,1016.602539 
	C336.069061,1017.075684 336.132843,1017.081970 336.127563,1017.113647 
	C335.696136,1017.374817 335.243591,1017.473572 334.516785,1017.160156 
	C334.221741,990.246643 334.130615,963.592834 334.128265,936.939026 
	C334.124939,898.952576 334.186737,860.966187 334.272156,822.517029 
	C334.397339,821.855103 334.471069,821.655884 334.773224,821.234436 
	C335.001617,821.012207 335.436707,820.771667 335.684906,820.785278 
z"/>
<path fill="#EEBB2B" opacity="1.000000" stroke="none" 
	d="
M922.712097,349.834808 
	C920.292969,348.051117 921.047119,345.239624 921.045410,342.657776 
	C921.004639,279.748779 921.006287,216.839767 920.999756,153.461624 
	C921.148499,152.869476 921.297729,152.746460 921.734741,152.660828 
	C922.082642,153.039017 922.248901,153.316238 922.622314,153.760345 
	C922.794373,175.982010 922.914795,197.973114 922.926208,219.964279 
	C922.948547,263.122559 922.910339,306.280853 922.712097,349.834808 
z"/>
<path fill="#CFA222" opacity="1.000000" stroke="none" 
	d="
M334.987915,410.455841 
	C336.419556,410.434296 337.667236,411.439972 337.567596,412.753754 
	C336.812073,422.716614 339.761932,432.436676 339.172760,442.686340 
	C336.478088,432.457672 335.717194,421.686035 334.987915,410.455841 
z"/>
<path fill="#D4A525" opacity="1.000000" stroke="none" 
	d="
M920.963135,696.568848 
	C918.700012,693.425293 916.449341,689.853516 918.787109,685.181030 
	C920.443909,688.567932 920.311340,692.422974 920.963135,696.568848 
z"/>
<path fill="#D4A525" opacity="1.000000" stroke="none" 
	d="
M922.034180,708.556274 
	C916.942627,706.148621 919.694946,702.254395 920.793823,698.304504 
	C921.363708,701.370544 921.727173,704.741089 922.034180,708.556274 
z"/>
<path fill="#AF891C" opacity="1.000000" stroke="none" 
	d="
M334.246704,1017.191528 
	C334.685608,1016.941895 335.097992,1016.983337 335.816315,1017.085022 
	C335.619324,1017.996704 334.978149,1018.068970 334.246704,1017.191528 
z"/>
<path fill="#AF891C" opacity="1.000000" stroke="none" 
	d="
M334.733215,821.057495 
	C334.972290,821.309692 334.868042,821.578064 334.506226,821.935791 
	C334.370667,821.737122 334.417755,821.419922 334.733215,821.057495 
z"/>
<path fill="#DCAA26" opacity="1.000000" stroke="none" 
	d="
M922.808105,153.683563 
	C922.477722,153.759537 922.288757,153.488678 922.089478,152.938248 
	C922.312622,152.924210 922.602783,153.150238 922.808105,153.683563 
z"/>
<path fill="#0B0802" opacity="1.000000" stroke="none" 
	d="
M872.233521,231.648010 
	C853.779236,240.132507 836.091797,250.093567 818.507812,260.231903 
	C729.387695,311.615601 645.691895,370.779816 566.596985,436.478699 
	C546.735352,452.976471 527.452454,470.169952 508.584076,487.813446 
	C507.442017,488.881348 506.668152,491.067291 504.122131,489.572723 
	C500.126709,487.227386 499.863373,486.216736 503.357727,482.790710 
	C544.701904,442.255219 588.873779,405.024872 635.114807,370.223328 
	C693.080444,326.597626 753.403748,286.542480 816.498657,250.699280 
	C836.474060,239.351593 856.560669,228.205948 877.035828,217.775925 
	C878.905212,216.823669 880.762085,215.846771 882.653198,214.866531 
	C883.832703,216.806213 883.389587,218.508072 883.390808,220.111847 
	C883.414856,252.605286 883.357178,285.098846 883.453735,317.592010 
	C883.462708,320.623566 882.730591,322.310974 879.811035,323.682373 
	C816.555847,353.394775 755.906311,387.808899 696.901978,425.194794 
	C646.629456,457.048065 597.916138,491.072327 551.782898,528.724670 
	C550.659241,529.641785 549.847839,531.498779 547.601562,530.460510 
	C543.778992,528.693665 543.476318,527.118469 546.755859,524.321350 
	C594.371887,483.709778 645.002380,447.232880 697.857605,413.767792 
	C752.364136,379.257233 808.464417,347.626923 866.452637,319.338318 
	C869.215210,317.990662 873.862793,317.916992 873.199341,312.418518 
	C871.971680,310.355316 872.534424,308.477509 872.528687,306.705017 
	C872.448547,281.833221 872.576477,256.961151 872.233521,231.648010 
z"/>
<path fill="#F2BD2A" opacity="1.000000" stroke="none" 
	d="
M872.026611,231.662216 
	C874.215454,231.531418 873.243896,233.290878 873.246582,234.338486 
	C873.311646,259.928467 873.294006,285.518646 873.186523,311.569550 
	C871.554443,309.970551 872.016113,307.570312 872.014282,305.287750 
	C871.994751,280.897766 872.017700,256.507721 872.026611,231.662216 
z"/>
<path fill="#0C0902" opacity="1.000000" stroke="none" 
	d="
M744.756470,686.331970 
	C761.383911,667.765808 778.002014,649.854553 793.147644,630.654663 
	C793.836792,629.781006 794.433472,628.613892 795.961853,629.481812 
	C797.289551,632.408813 794.859253,633.338867 793.870850,634.609680 
	C779.471130,653.123901 764.416321,671.089844 748.132080,688.415039 
	C746.164856,689.180298 745.056274,688.624207 744.756470,686.331970 
z"/>
<path fill="#0C0902" opacity="1.000000" stroke="none" 
	d="
M725.965027,705.466064 
	C729.812622,701.125854 733.605469,697.208130 737.698853,693.144287 
	C739.381714,692.854797 740.594971,693.100769 741.405579,694.828369 
	C737.645325,699.306213 733.810425,703.401306 729.674438,707.681580 
	C727.920044,707.730591 726.532043,707.480225 725.965027,705.466064 
z"/>
<path fill="#171104" opacity="1.000000" stroke="none" 
	d="
M805.240356,616.434021 
	C809.874084,608.394470 815.005066,601.385010 821.313721,595.548340 
	C817.678772,603.922119 811.947144,610.526672 806.494385,617.320801 
	C805.988953,617.950439 805.330627,617.538147 805.240356,616.434021 
z"/>
<path fill="#171104" opacity="1.000000" stroke="none" 
	d="
M741.748657,695.039917 
	C740.488098,694.629944 739.495972,694.048706 738.251526,693.232849 
	C740.105164,690.702698 742.211121,688.407166 744.617188,685.960815 
	C745.331604,686.906921 746.059265,687.719604 747.496582,688.419312 
	C745.923767,690.692810 743.970459,692.780701 741.748657,695.039917 
z"/>
<path fill="#171104" opacity="1.000000" stroke="none" 
	d="
M725.748291,705.156250 
	C726.995789,705.783325 727.971863,706.523010 729.160583,707.564697 
	C728.667114,708.620972 727.960999,709.375122 727.022339,710.247437 
	C725.984436,709.485107 725.179077,708.604675 724.201416,707.403931 
	C724.511719,706.478760 724.994263,705.873840 725.748291,705.156250 
z"/>
<path fill="#0C0902" opacity="1.000000" stroke="none" 
	d="
M799.257935,624.213379 
	C799.989746,622.423767 800.889893,620.572388 802.349548,619.446289 
	C804.217224,618.005554 804.381470,619.431763 803.763123,621.499023 
	C803.026733,622.621582 802.525452,623.225647 801.806824,624.029602 
	C800.976562,624.509155 800.338379,624.590454 799.257935,624.213379 
z"/>
<path fill="#171104" opacity="1.000000" stroke="none" 
	d="
M798.571899,624.108032 
	C799.452271,624.008179 800.063538,624.063599 801.132141,624.174255 
	C801.003113,625.077332 800.416809,625.925232 799.569458,626.938965 
	C798.698608,627.422058 798.054932,627.522949 796.968323,627.118896 
	C797.140442,625.974426 797.721680,625.118835 798.571899,624.108032 
z"/>
<path fill="#0C0902" opacity="1.000000" stroke="none" 
	d="
M796.205994,627.140625 
	C797.170349,626.889832 797.781372,626.949646 798.850403,627.057129 
	C798.660217,628.528015 797.833679,629.808167 796.218872,630.332520 
	C793.290283,629.284363 795.432800,628.326965 796.205994,627.140625 
z"/>
</svg>